<?xml version="1.0" encoding="UTF-8" standalone="no"?>
<!-- Created with Inkscape (http://www.inkscape.org/) -->

<svg
   xmlns:dc="http://purl.org/dc/elements/1.1/"
   xmlns:cc="http://creativecommons.org/ns#"
   xmlns:rdf="http://www.w3.org/1999/02/22-rdf-syntax-ns#"
   xmlns:svg="http://www.w3.org/2000/svg"
   xmlns="http://www.w3.org/2000/svg"
   xmlns:sodipodi="http://sodipodi.sourceforge.net/DTD/sodipodi-0.dtd"
   xmlns:inkscape="http://www.inkscape.org/namespaces/inkscape"
   width="93.321198mm"
   height="106.40579mm"
   viewBox="0 0 330.66566 377.0284"
   id="svg2"
   version="1.1"
   inkscape:version="0.91 r13725"
   sodipodi:docname="foo.svg">
  <defs
     id="defs4" />
  <sodipodi:namedview
     id="base"
     pagecolor="#ffffff"
     bordercolor="#666666"
     borderopacity="1.0"
     inkscape:pageopacity="0.0"
     inkscape:pageshadow="2"
     inkscape:zoom="0.40924347"
     inkscape:cx="-1083.5408"
     inkscape:cy="-422.00478"
     inkscape:document-units="px"
     inkscape:current-layer="layer1"
     showgrid="false"
     fit-margin-top="0"
     fit-margin-left="0"
     fit-margin-right="0"
     fit-margin-bottom="0"
     inkscape:window-width="1920"
     inkscape:window-height="1020"
     inkscape:window-x="0"
     inkscape:window-y="31"
     inkscape:window-maximized="1" />
  <metadata
     id="metadata7">
    <rdf:RDF>
      <cc:Work
         rdf:about="">
        <dc:format>image/svg+xml</dc:format>
        <dc:type
           rdf:resource="http://purl.org/dc/dcmitype/StillImage" />
        <dc:title></dc:title>
      </cc:Work>
    </rdf:RDF>
  </metadata>
  <g
     inkscape:label="Layer 1"
     inkscape:groupmode="layer"
     id="layer1"
     transform="translate(-721.3576,-446.09979)">
    <path
       style="opacity:1;fill:#ff0000;fill-opacity:1;fill-rule:nonzero;stroke:#000000;stroke-width:7.0999999;stroke-linecap:round;stroke-linejoin:round;stroke-miterlimit:4;stroke-dasharray:none;stroke-dashoffset:0;stroke-opacity:0.39215686"
       d="m 766.33984,449.6582 c -6.02385,0.38608 -42.32939,22.87094 -40.64648,25.61719 0.93512,0.87036 1.88846,1.72 2.78906,2.62695 1.3051,1.27763 2.57523,2.59016 3.86524,3.88282 1.53751,1.54817 2.97754,3.18967 4.4082,4.83593 1.82942,2.14684 3.71048,4.24821 5.59375,6.34766 2.43207,2.76444 4.87151,5.52119 7.32617,8.26563 2.83781,3.17025 5.71458,6.30698 8.53125,9.49609 3.05463,3.49194 6.14096,6.95557 9.19141,10.45117 3.1889,3.695 6.3532,7.40929 9.47851,11.1582 3.41629,4.13061 6.80257,8.28603 10.16211,12.46289 3.794,4.857 7.6956,9.62287 11.68946,14.31641 5.4331,6.18537 10.87583,12.36234 16.23828,18.60938 6.47168,7.45116 12.68015,15.12107 18.85937,22.81445 6.16543,7.71495 12.38749,15.38418 18.53516,23.11328 2.0459,2.55137 4.10206,5.09402 6.15625,7.63867 -4.50941,5.46727 -9.02721,10.92717 -13.58594,16.35352 -6.51918,7.75682 -13.12653,15.43936 -19.75195,23.10547 -6.96244,7.92336 -13.70141,16.03565 -20.29688,24.26562 -6.44003,8.07683 -12.74757,16.25725 -19.14062,24.37109 -5.69254,7.30923 -11.38584,14.61815 -17.08789,21.91993 -5.2718,6.74866 -10.56859,13.47726 -15.89649,20.18164 -5.1011,6.3604 -10.24318,12.68713 -15.45508,18.95703 -4.1095,4.8767 -8.23436,9.74112 -12.35156,14.61133 -1.7169,2.85833 38.70693,27.13957 40.42383,24.28125 4.0666,-4.913 8.14365,-9.81928 12.23828,-14.70899 5.20416,-6.31328 10.33416,-12.6847 15.41992,-19.09375 5.31603,-6.7302 10.61647,-13.47457 15.84961,-20.26953 5.63943,-7.3316 11.25676,-14.67906 16.87696,-22.02539 6.303,-8.14953 12.52845,-16.35914 18.98242,-24.39062 6.57534,-8.17245 13.29875,-16.2243 20.22851,-24.09961 6.67789,-7.65873 13.32951,-15.34084 19.94141,-23.05664 1.16913,-1.36804 2.32928,-2.7424 3.49023,-4.11719 0.0228,0.0267 0.0456,0.0534 0.0684,0.0801 6.6119,7.7158 13.26352,15.39791 19.94141,23.05664 6.92976,7.87531 13.65122,15.92716 20.22656,24.09961 6.45397,8.03148 12.68138,16.24109 18.98438,24.39062 5.6202,7.34633 11.23752,14.69575 16.87695,22.02735 5.23314,6.79496 10.53163,13.53737 15.84766,20.26757 5.08576,6.40905 10.21771,12.78243 15.42187,19.09571 4.09463,4.88971 8.17163,9.79403 12.23823,14.70703 1.7169,2.85832 42.1388,-21.42292 40.4219,-24.28125 -4.1172,-4.87021 -8.2401,-9.73268 -12.3496,-14.60938 -5.2119,-6.2699 -10.354,-12.59858 -15.4551,-18.95898 -5.3279,-6.70438 -10.6266,-13.43103 -15.8984,-20.17969 -5.70205,-7.30178 -11.39535,-14.61069 -17.08789,-21.91992 -6.39305,-8.11385 -12.69864,-16.29622 -19.13867,-24.37305 -6.59547,-8.22997 -13.33639,-16.34031 -20.29883,-24.26367 -6.62542,-7.66611 -13.23082,-15.3506 -19.75,-23.10742 -3.4494,-4.10589 -6.87654,-8.23168 -10.29492,-12.36328 0.95363,-1.18561 1.91142,-2.36765 2.86328,-3.55469 6.14767,-7.7291 12.36973,-15.39833 18.53516,-23.11328 6.17922,-7.69338 12.38965,-15.36525 18.86133,-22.81641 5.36245,-6.24704 10.80322,-12.42205 16.23632,-18.60742 3.99386,-4.69354 7.89546,-9.45942 11.68946,-14.31641 3.35954,-4.17686 6.74777,-8.33228 10.16406,-12.46289 3.12531,-3.74891 6.2896,-7.4632 9.4785,-11.1582 3.0504,-3.4956 6.1368,-6.96119 9.1914,-10.45313 2.8167,-3.18911 5.6915,-6.32389 8.5293,-9.49414 2.4546,-2.74443 4.8941,-5.50313 7.3261,-8.26757 1.8833,-2.09945 3.7664,-4.20082 5.5958,-6.34766 1.4307,-1.64626 2.8707,-3.28581 4.4082,-4.83398 1.29,-1.29266 2.5601,-2.60519 3.8652,-3.88282 0.9006,-0.90695 1.852,-1.75659 2.7871,-2.62695 1.7951,-2.92933 -39.6307,-28.31605 -41.4258,-25.38672 -0.9372,0.86757 -1.7789,1.8302 -2.6699,2.74414 -1.2736,1.29252 -2.5003,2.63081 -3.77145,3.92578 -1.5546,1.70169 -3.08015,3.43098 -4.53515,5.21875 -1.76984,2.14366 -3.61078,4.22631 -5.41602,6.33985 -2.34081,2.81668 -4.73056,5.5919 -7.14258,8.34765 -2.82585,3.18221 -5.66601,6.34867 -8.46484,9.55469 -3.02417,3.52402 -6.10366,7.0009 -9.13867,10.51563 -3.19553,3.73604 -6.37427,7.48665 -9.48828,11.29101 -3.39501,4.1741 -6.75063,8.37811 -10.09375,12.59375 -3.73728,4.83902 -7.53473,9.62969 -11.42383,14.34766 -5.25699,6.28824 -10.52129,12.56985 -15.75586,18.87695 -6.38777,7.55696 -12.5469,15.30196 -18.75977,23.00195 -3.76497,4.66871 -7.53301,9.33527 -11.29297,14.00782 -4.82922,-6.02571 -9.67978,-12.03377 -14.52734,-18.04493 -6.21287,-7.69999 -12.372,-15.44499 -18.75977,-23.00195 -5.23457,-6.3071 -10.49887,-12.58871 -15.75586,-18.87695 -3.88909,-4.71797 -7.68654,-9.50668 -11.42382,-14.3457 -3.34312,-4.21565 -6.7007,-8.42161 -10.09571,-12.59571 -3.11401,-3.80436 -6.29275,-7.55302 -9.48828,-11.28906 -3.03501,-3.51473 -6.11255,-6.99161 -9.13672,-10.51563 -2.79883,-3.20602 -5.64094,-6.37443 -8.46679,-9.55664 -2.41202,-2.75575 -4.80177,-5.53097 -7.14258,-8.34765 -1.80524,-2.11354 -3.64618,-4.19619 -5.41602,-6.33985 -1.455,-1.78777 -2.98055,-3.51706 -4.53515,-5.21875 -1.27122,-1.29497 -2.49596,-2.6313 -3.76953,-3.92382 -0.89099,-0.91394 -1.73274,-1.87853 -2.66993,-2.7461 -0.11219,-0.18308 -0.37966,-0.25621 -0.78125,-0.23047 z"
       id="path4188"
       inkscape:connector-curvature="0" />
  </g>
</svg>
